<?xml version="1.0" encoding="UTF-8" standalone="no"?>
<svg
   xmlns:dc="http://purl.org/dc/elements/1.1/"
   xmlns:cc="http://creativecommons.org/ns#"
   xmlns:rdf="http://www.w3.org/1999/02/22-rdf-syntax-ns#"
   xmlns:svg="http://www.w3.org/2000/svg"
   xmlns="http://www.w3.org/2000/svg"
   xmlns:sodipodi="http://sodipodi.sourceforge.net/DTD/sodipodi-0.dtd"
   xmlns:inkscape="http://www.inkscape.org/namespaces/inkscape"
   width="500"
   height="500"
   viewBox="0 0 132.29166 132.29167"
   version="1.1"
   id="svg8"
   inkscape:version="1.0 (4035a4fb49, 2020-05-01)"
   sodipodi:docname="logo.svg">
  <defs
     id="defs2">
    <rect
       x="28.865109"
       y="43.832203"
       width="62.00653"
       height="41.694046"
       id="rect835" />
  </defs>
  <sodipodi:namedview
     id="base"
     pagecolor="#ffffff"
     bordercolor="#666666"
     borderopacity="1.0"
     inkscape:pageopacity="0.0"
     inkscape:pageshadow="2"
     inkscape:zoom="0.70710678"
     inkscape:cx="267.35504"
     inkscape:cy="237.64178"
     inkscape:document-units="mm"
     inkscape:current-layer="layer1"
     inkscape:document-rotation="0"
     showgrid="false"
     units="px"
     inkscape:window-width="1920"
     inkscape:window-height="1001"
     inkscape:window-x="-9"
     inkscape:window-y="-9"
     inkscape:window-maximized="1" />
  <metadata
     id="metadata5">
    <rdf:RDF>
      <cc:Work
         rdf:about="">
        <dc:format>image/svg+xml</dc:format>
        <dc:type
           rdf:resource="http://purl.org/dc/dcmitype/StillImage" />
        <dc:title />
      </cc:Work>
    </rdf:RDF>
  </metadata>
  <g
     inkscape:label="Layer 1"
     inkscape:groupmode="layer"
     id="layer1">
    <circle
       r="63.918591"
       cy="66.145836"
       cx="66.145836"
       id="path846"
       style="fill:#ffffff;stroke:#000000;stroke-width:2.55666878;stroke-linecap:square;stroke-linejoin:round;stroke-miterlimit:4;stroke-dasharray:none;paint-order:stroke fill markers;stroke-dashoffset:0" />
    <g
       style="font-style:normal;font-variant:normal;font-weight:normal;font-stretch:normal;font-size:10.5833px;line-height:1.25;font-family:Capsuula;-inkscape-font-specification:'Capsuula, Normal';font-variant-ligatures:normal;font-variant-caps:normal;font-variant-numeric:normal;font-variant-east-asian:normal;white-space:pre;shape-inside:url(#rect835);fill:#000000;fill-opacity:1;stroke:#000000;stroke-width:0.214418;stroke-miterlimit:4;stroke-dasharray:none;stroke-opacity:1"
       id="text833"
       transform="matrix(9.8717015,0,0,9.8717015,-246.05484,-426.79825)"
       aria-label="JC">
      <path
         id="path837"
         style="font-style:normal;font-variant:normal;font-weight:normal;font-stretch:normal;font-size:10.5833px;font-family:Capsuula;-inkscape-font-specification:'Capsuula, Normal';font-variant-ligatures:normal;font-variant-caps:normal;font-variant-numeric:normal;font-variant-east-asian:normal;stroke:#000000;stroke-width:0.214418;stroke-miterlimit:4;stroke-dasharray:none;stroke-opacity:1"
         d="m 29.606065,45.463623 h 0.423332 v 6.773312 q 0,0.476249 -0.169332,0.878414 -0.169333,0.412749 -0.465666,0.709081 -0.296332,0.296332 -0.687914,0.465665 -0.402166,0.169333 -0.846664,0.169333 v -0.423332 q 0.359832,0 0.677331,-0.137583 0.317499,-0.127 0.550332,-0.370415 0.243416,-0.232833 0.380998,-0.571499 0.137583,-0.328082 0.137583,-0.719664 z" />
      <path
         id="path839"
         style="font-style:normal;font-variant:normal;font-weight:normal;font-stretch:normal;font-size:10.5833px;font-family:Capsuula;-inkscape-font-specification:'Capsuula, Normal';font-variant-ligatures:normal;font-variant-caps:normal;font-variant-numeric:normal;font-variant-east-asian:normal;stroke:#000000;stroke-width:0.214418;stroke-miterlimit:4;stroke-dasharray:none;stroke-opacity:1"
         d="m 31.878168,50.702357 q 0,0.412748 0.137582,0.730247 0.137583,0.317499 0.370416,0.560915 0.243416,0.232833 0.560915,0.370416 0.317499,0.137583 0.677331,0.137583 0.359832,0 0.677331,-0.137583 0.317499,-0.137583 0.476249,-0.306916 0.169332,-0.169333 0.253999,-0.275166 l 0.359832,0.222249 q -0.105833,0.148167 -0.317499,0.370416 -0.211666,0.211666 -0.613831,0.380999 -0.391582,0.169333 -0.836081,0.169333 -0.444499,0 -0.846664,-0.169333 -0.391582,-0.169333 -0.687915,-0.465665 -0.296332,-0.296333 -0.465665,-0.687915 -0.169332,-0.402165 -0.169332,-0.89958 V 47.6332 q 0,-0.497415 0.169332,-0.888997 0.169333,-0.402166 0.465665,-0.698498 0.296333,-0.296333 0.687915,-0.465665 0.402165,-0.169333 0.846664,-0.169333 0.444499,0 0.836081,0.169333 0.402165,0.169332 0.613831,0.391582 0.211666,0.211666 0.317499,0.359832 l -0.359832,0.222249 q -0.08467,-0.105833 -0.253999,-0.275166 -0.15875,-0.169332 -0.476249,-0.306915 -0.317499,-0.137583 -0.677331,-0.137583 -0.359832,0 -0.677331,0.137583 -0.317499,0.137583 -0.560915,0.380998 -0.232833,0.232833 -0.370416,0.550332 -0.137582,0.317499 -0.137582,0.730248 v 3.069157 z" />
    </g>
  </g>
</svg>
